HIERARCHY
ROOT Hips
{
	OFFSET 0.000000 0.000000 0.000000
	CHANNELS 6 Xposition Yposition Zposition Zrotation Yrotation Xrotation 
	JOINT LHipJoint
	{
		OFFSET 0.000000 0.000000 0.000000
		CHANNELS 3 Zrotation Yrotation Xrotation
		JOINT LeftUpLeg
		{
			OFFSET 1.363060 -1.794630 0.839290
			CHANNELS 3 Zrotation Yrotation Xrotation
			JOINT LeftLeg
			{
				OFFSET 2.448110 -6.726130 0.000000
				CHANNELS 3 Zrotation Yrotation Xrotation
				JOINT LeftFoot
				{
					OFFSET 2.562200 -7.039590 0.000000
					CHANNELS 3 Zrotation Yrotation Xrotation
					JOINT LeftToeBase
					{
						OFFSET 0.157640 -0.433110 2.322550
						CHANNELS 3 Zrotation Yrotation Xrotation
						End Site
						{
							OFFSET 0.000000 0.000000 0.000000
						}
					}
				}
			}
		}
	}
	JOINT RHipJoint
	{
		OFFSET 0.000000 0.000000 0.000000
		CHANNELS 3 Zrotation Yrotation Xrotation
		JOINT RightUpLeg
		{
			OFFSET -1.305520 -1.794630 0.839290
			CHANNELS 3 Zrotation Yrotation Xrotation
			JOINT RightLeg
			{
				OFFSET -2.542530 -6.985550 0.000000
				CHANNELS 3 Zrotation Yrotation Xrotation
				JOINT RightFoot
				{
					OFFSET -2.568260 -7.056230 0.000000
					CHANNELS 3 Zrotation Yrotation Xrotation
					JOINT RightToeBase
					{
						OFFSET -0.164730 -0.452590 2.363150
						CHANNELS 3 Zrotation Yrotation Xrotation
						End Site
						{
							OFFSET 0.000000 0.000000 0.000000
						}
					}
				}
			}
		}
	}
	JOINT LowerBack
	{
		OFFSET 0.000000 0.000000 0.000000
		CHANNELS 3 Zrotation Yrotation Xrotation
		JOINT Spine
		{
			OFFSET 0.028270 2.035590 -0.193380
			CHANNELS 3 Zrotation Yrotation Xrotation
			JOINT Spine1
			{
				OFFSET 0.056720 2.048850 -0.042750
				CHANNELS 3 Zrotation Yrotation Xrotation
				JOINT Neck
				{
					OFFSET 0.000000 0.000000 0.000000
					CHANNELS 3 Zrotation Yrotation Xrotation
					JOINT Neck1
					{
						OFFSET -0.054170 1.746240 0.172020
						CHANNELS 3 Zrotation Yrotation Xrotation
						JOINT Head
						{
							OFFSET 0.104070 1.761360 -0.123970
							CHANNELS 3 Zrotation Yrotation Xrotation
							End Site
							{
								OFFSET 0.000000 0.000000 0.000000
							}
						}
					}
				}
				JOINT LeftShoulder
				{
					OFFSET 0.000000 0.000000 0.000000
					CHANNELS 3 Zrotation Yrotation Xrotation
					JOINT LeftArm
					{
						OFFSET 3.362410 1.200890 -0.311210
						CHANNELS 3 Zrotation Yrotation Xrotation
						JOINT LeftForeArm
						{
							OFFSET 4.983000 -0.000000 -0.000000
							CHANNELS 3 Zrotation Yrotation Xrotation
							JOINT LeftHand
							{
								OFFSET 3.483560 -0.000000 -0.000000
								CHANNELS 3 Zrotation Yrotation Xrotation
								JOINT LeftFingerBase
								{
									OFFSET 0.000000 0.000000 0.000000
									CHANNELS 3 Zrotation Yrotation Xrotation
									JOINT LeftHandIndex1
									{
										OFFSET 0.715260 -0.000000 -0.000000
										CHANNELS 3 Zrotation Yrotation Xrotation
										End Site
										{
											OFFSET 0.000000 0.000000 0.000000
										}
									}
								}
								JOINT LThumb
								{
									OFFSET 0.000000 0.000000 0.000000
									CHANNELS 3 Zrotation Yrotation Xrotation
									End Site
									{
										OFFSET 0.000000 0.000000 0.000000
									}
								}
							}
						}
					}
				}
				JOINT RightShoulder
				{
					OFFSET 0.000000 0.000000 0.000000
					CHANNELS 3 Zrotation Yrotation Xrotation
					JOINT RightArm
					{
						OFFSET -3.136600 1.374050 -0.404650
						CHANNELS 3 Zrotation Yrotation Xrotation
						JOINT RightForeArm
						{
							OFFSET -5.241900 -0.000000 -0.000000
							CHANNELS 3 Zrotation Yrotation Xrotation
							JOINT RightHand
							{
								OFFSET -3.444170 -0.000000 -0.000000
								CHANNELS 3 Zrotation Yrotation Xrotation
								JOINT RightFingerBase
								{
									OFFSET 0.000000 0.000000 0.000000
									CHANNELS 3 Zrotation Yrotation Xrotation
									JOINT RightHandIndex1
									{
										OFFSET -0.622530 -0.000000 -0.000000
										CHANNELS 3 Zrotation Yrotation Xrotation
										End Site
										{
											OFFSET 0.000000 0.000000 0.000000
										}
									}
								}
								JOINT RThumb
								{
									OFFSET 0.000000 0.000000 0.000000
									CHANNELS 3 Zrotation Yrotation Xrotation
									End Site
									{
										OFFSET 0.000000 0.000000 0.000000
									}
								}
							}
						}
					}
				}
			}
		}
	}
}
MOTION
Frames: 7
Frame Time: 0.008333
1.202374 17.488958 1.537692 8.938568 -58.803581 6.935655 -9.486686 2.294205 7.112598 -7.550475 -10.822382 -16.463968 -2.542247 -1.642031 -1.587689 0.215158 4.994154 7.764747 1.880500 -0.000000 -48.877700 11.512873 -3.129678 -0.415879 -0.226125 -26.576023 -7.335713 1.871455 0.810253 -3.624689 -2.057300 -14.923678 13.053780 -6.071000 -0.000000 -74.582000 -0.448435 3.084497 -9.124889 0.026759 3.345072 -4.751737 0.412956 3.409364 -2.314387 -9.205597 0.584731 -4.405723 -2.694553 -0.239546 0.869558 0.000000 0.000000 0.000000 4.523066 2.818654 -5.178498 -93.175981 -28.927908 36.116739 178.336632 -50.983592 179.640828 17.536547 -44.382404 -7.801825 -0.215162 2.487264 -0.000000 0.000000 0.000000 0.000000 0.000000 0.000000 0.000000 -9.311633 5.418263 6.483963 -11.278260 49.613613 -61.148625 -0.612800 -4.630432 -0.040550 -6.201702 -13.371176 0.758599 0.220986 0.104259 0.000000 0.000000 0.000000 0.000000 0.000000 0.000000 0.000000 
1.196720 17.490859 1.549611 8.652469 -58.716674 6.957230 -9.492496 2.324630 7.128630 -7.399267 -11.012455 -16.071252 -2.501859 -1.627157 -1.702928 0.240930 5.135959 7.685871 1.903300 0.000000 -48.819400 11.505209 -3.154942 -0.510263 -0.258574 -26.789503 -6.861847 1.875950 0.808973 -3.813891 -2.036047 -14.931708 13.372193 -6.139699 -0.000000 -74.730700 -0.443800 2.975262 -9.050707 0.046508 3.231151 -4.751776 0.432383 3.296695 -2.350569 -8.917931 0.618674 -4.231533 -2.582574 -0.234676 0.927243 0.000000 0.000000 0.000000 4.563053 2.878406 -5.091830 -93.119259 -28.543451 36.032786 178.327146 -50.968556 179.640992 17.520594 -44.260890 -7.771950 -0.216111 2.485201 -0.000000 0.000000 0.000000 0.000000 0.000000 0.000000 0.000000 -9.800885 5.460160 6.139114 -7.017170 49.994394 -59.663291 -0.702629 -2.141766 -0.033060 -4.379263 -15.059959 0.604587 0.160927 0.121846 0.000000 0.000000 0.000000 0.000000 0.000000 0.000000 0.000000 
1.192899 17.492625 1.561576 8.349707 -58.655853 6.991533 -9.505716 2.349252 7.131436 -7.239652 -11.190890 -15.683286 -2.457109 -1.609996 -1.788648 0.270318 5.294535 7.576951 1.926599 0.000000 -48.751100 11.488089 -3.177051 -0.607297 -0.275360 -26.953797 -6.409946 1.875817 0.803339 -3.943791 -2.024063 -14.981578 13.652544 -6.217800 0.000000 -74.847801 -0.402216 2.874320 -8.956561 0.054776 3.117333 -4.758501 0.363557 3.187226 -2.430231 -8.505383 0.784455 -3.994074 -2.526047 -0.234350 1.000204 0.000000 0.000000 0.000000 4.613401 2.925914 -4.982417 -92.974785 -28.190385 35.925218 178.346163 -50.956485 179.641658 17.640124 -44.122140 -7.801682 -0.224307 2.486261 -0.000000 0.000000 0.000000 0.000000 0.000000 0.000000 0.000000 -9.960595 5.607329 5.754235 -2.696475 50.040839 -56.597628 -0.771378 0.925363 -0.024910 -2.696904 -16.046776 0.397941 0.108819 0.117083 0.000000 0.000000 0.000000 0.000000 0.000000 0.000000 0.000000 
1.189986 17.493873 1.573689 8.032216 -58.623631 7.049817 -9.520959 2.371651 7.130987 -7.073303 -11.355451 -15.325930 -2.410419 -1.592782 -1.837399 0.302245 5.463439 7.433442 1.948700 -0.000000 -48.675700 11.465807 -3.197971 -0.694398 -0.266340 -27.065868 -6.015992 1.872194 0.794587 -3.995807 -2.021730 -15.070780 13.870685 -6.299700 0.000000 -74.927100 -0.354895 2.780060 -8.867210 0.045329 3.005267 -4.772605 0.205456 3.081099 -2.532742 -7.920804 1.052343 -3.703889 -2.540974 -0.239381 1.084789 0.000000 0.000000 0.000000 4.732226 2.956085 -4.862890 -92.790828 -27.860699 35.820483 178.387384 -50.955001 179.642829 17.851902 -43.984429 -7.874221 -0.237865 2.490686 -0.000000 0.000000 0.000000 0.000000 0.000000 0.000000 0.000000 -9.638006 5.816108 5.375090 1.269282 49.674506 -51.826144 -0.790421 4.522569 -0.016381 -1.171663 -16.206329 0.176561 0.064578 0.087671 0.000000 0.000000 0.000000 0.000000 0.000000 0.000000 0.000000 
1.188572 17.494415 1.585478 7.691817 -58.610600 7.114922 -9.537143 2.391550 7.123744 -6.900892 -11.503694 -14.972188 -2.361860 -1.574248 -1.849704 0.335470 5.632726 7.254980 1.966000 0.000000 -48.613599 11.440286 -3.218392 -0.780152 -0.243122 -27.154161 -5.647736 1.865878 0.781642 -3.980605 -2.026354 -15.185996 14.036401 -6.381100 0.000001 -74.994100 -0.317487 2.690376 -8.767305 0.024728 2.895802 -4.789516 -0.002143 2.976945 -2.650288 -7.201232 1.411802 -3.362801 -2.612929 -0.248622 1.180534 0.000000 0.000000 0.000000 4.912208 2.950886 -4.736959 -92.592880 -27.549663 35.722113 178.442230 -50.972719 179.644252 18.123362 -43.858131 -7.976194 -0.254732 2.497425 -0.000000 0.000000 0.000000 0.000000 0.000000 0.000000 0.000000 -8.897500 6.083000 5.021743 4.697109 48.838724 -46.168799 -0.800695 8.597736 -0.009298 -0.242090 -15.448376 0.037457 0.035080 0.031847 0.000000 0.000000 0.000000 0.000000 0.000000 0.000000 0.000000 
1.187461 17.494032 1.597177 7.343003 -58.620909 7.204430 -9.551398 2.410591 7.119766 -6.725979 -11.638004 -14.665259 -2.313678 -1.556838 -1.820391 0.369630 5.800669 7.041147 1.978700 -0.000000 -48.554399 11.412971 -3.237081 -0.851442 -0.191974 -27.204683 -5.359326 1.857840 0.766229 -3.876101 -2.039578 -15.330128 14.121365 -6.457799 0.000000 -75.026000 -0.293803 2.605141 -8.684524 -0.000022 2.791376 -4.809345 -0.221063 2.875874 -2.763760 -6.416510 1.769832 -2.998682 -2.719497 -0.260172 1.280667 0.000000 0.000000 0.000000 5.119396 2.936749 -4.606739 -92.383861 -27.266605 35.640167 178.507274 -51.001196 179.645925 18.431160 -43.746431 -8.097225 -0.273772 2.505765 -0.000000 0.000000 0.000000 0.000000 0.000000 0.000000 0.000000 -7.883226 6.326678 4.674467 7.526506 47.755895 -40.855382 -0.858579 12.842924 -0.006245 -0.309374 -13.667269 0.039745 0.024884 -0.049051 -0.000000 0.000000 0.000000 0.000000 0.000000 0.000000 0.000000 
1.186535 17.492680 1.608612 6.990707 -58.648331 7.315592 -9.563877 2.428457 7.118869 -6.549944 -11.760913 -14.405951 -2.266348 -1.540374 -1.750804 0.404074 5.961828 6.794557 1.985200 -0.000001 -48.501400 11.384108 -3.252841 -0.911083 -0.115649 -27.226750 -5.148052 1.848562 0.748633 -3.687292 -2.060675 -15.499958 14.128992 -6.528801 -0.000000 -75.040700 -0.281199 2.522706 -8.615834 -0.024830 2.690823 -4.830427 -0.433839 2.776522 -2.870094 -5.611839 2.061972 -2.629209 -2.844681 -0.272742 1.380947 0.000000 0.000000 0.000000 5.337713 2.927021 -4.473098 -92.165328 -27.015701 35.574909 178.579825 -51.035453 179.647807 18.751346 -43.648932 -8.226538 -0.293827 2.515152 -0.000000 0.000000 0.000000 0.000000 0.000000 0.000000 0.000000 -6.712424 6.487412 4.307392 9.908827 46.593160 -36.285135 -0.970832 17.140517 -0.009797 -1.399863 -11.081473 0.136947 0.032189 -0.146297 0.000000 0.000000 0.000000 0.000000 0.000000 0.000000 0.000000 
